<?xml version="1.0" encoding="iso-8859-1"?>
<!-- Generator: Adobe Illustrator 16.0.0, SVG Export Plug-In . SVG Version: 6.00 Build 0)  -->
<!DOCTYPE svg PUBLIC "-//W3C//DTD SVG 1.1//EN" "http://www.w3.org/Graphics/SVG/1.1/DTD/svg11.dtd">
<svg version="1.1" id="Capa_1" xmlns="http://www.w3.org/2000/svg" xmlns:xlink="http://www.w3.org/1999/xlink" x="0px" y="0px"
	 width="792.03px" height="792.03px" viewBox="0 0 792.03 792.03" style="enable-background:new 0 0 792.03 792.03;"
	 xml:space="preserve">
<g>
	<path d="M229.868,792.03L229.868,792.03c-16.488,0-32.115-6.58-44.004-18.507c-11.665-11.664-18.432-27.703-18.432-43.929
		c0-15.479,5.907-29.909,16.637-40.603l226.189-226.264c15.105-17.46,25.012-43.817,25.012-67.857
		c0-23.591-9.459-48.042-25.908-67.034l-225.292-225.33c-10.73-10.73-16.637-25.161-16.637-40.639
		c0-16.45,6.58-32.078,18.507-43.967c22.918-23.068,62.361-24.002,84.568-1.87l337.976,338.051
		c10.543,10.543,16.264,25.086,16.113,40.976c-1.42,10.879-5.383,31.629-16.076,42.359L270.507,775.431
		C259.777,786.123,245.346,792.03,229.868,792.03z M229.868,36.856c-6.468,0-12.674,2.654-17.497,7.477s-7.552,11.179-7.552,17.572
		c0,5.458,2.019,10.506,5.683,14.132l226.227,226.302c23.217,26.657,35.965,60.005,35.965,92.495
		c0,33.162-13.121,68.044-35.068,93.317L210.501,715.388c-3.664,3.701-5.683,8.711-5.683,14.207c0,6.355,2.729,12.749,7.515,17.534
		c4.823,4.785,11.178,7.515,17.534,7.515l0,0c5.458,0,10.506-2.019,14.169-5.683l337.977-337.976
		c1.645-2.281,4.41-12.301,5.346-18.806c-0.15-1.57-1.01-7.328-5.346-11.665L244.075,42.501
		C240.411,38.875,235.363,36.856,229.868,36.856z"/>
</g>
<g>
</g>
<g>
</g>
<g>
</g>
<g>
</g>
<g>
</g>
<g>
</g>
<g>
</g>
<g>
</g>
<g>
</g>
<g>
</g>
<g>
</g>
<g>
</g>
<g>
</g>
<g>
</g>
<g>
</g>
</svg>
